<?xml version="1.0" encoding="UTF-8"?>
<svg width="116px" height="92px" viewBox="0 0 116 92" version="1.1" xmlns="http://www.w3.org/2000/svg" xmlns:xlink="http://www.w3.org/1999/xlink">
    <!-- Generator: Sketch 52.6 (67491) - http://www.bohemiancoding.com/sketch -->
    <title>close-icon</title>
    <desc>Created with Sketch.</desc>
    <g id="Page-1" stroke="none" stroke-width="1" fill="none" fill-rule="evenodd">
        <g id="maintenance-page" transform="translate(-122.000000, -218.000000)">
            <g id="close-icon" transform="translate(122.000000, 220.000000)">
                <ellipse id="Oval" fill="#EFF1FF" cx="57.6521739" cy="81.5" rx="57.6521739" ry="8.5"></ellipse>
                <path d="M58,0 L58,0 C61.3137085,-6.08718376e-16 64,2.6862915 64,6 L64,79 C64,79.5522847 63.5522847,80 63,80 L53,80 C52.4477153,80 52,79.5522847 52,79 L52,6 C52,2.6862915 54.6862915,6.08718376e-16 58,0 Z" id="Rectangle" stroke="#394DFF" stroke-width="3" fill="#FFFFFF" stroke-linecap="round" stroke-linejoin="round"></path>
                <g id="Group" transform="translate(55.225863, 29.341045) rotate(8.000000) translate(-55.225863, -29.341045) translate(25.725863, 6.841045)">
                    <polygon id="Path" fill="#394DFF" fill-rule="nonzero" points="29.101724 2.32214857 2.65229827 21.0966377 1.61378263 19.6081794 29.1012446 0.096865237 56.6137826 19.6079519 55.5759084 21.0968652"></polygon>
                    <rect id="Rectangle" stroke="#394DFF" stroke-width="3" fill="#FFFFFF" stroke-linecap="round" stroke-linejoin="round" x="0.491161029" y="18.2452934" width="58" height="26" rx="2"></rect>
                    <circle id="Oval" fill="#394DFF" cx="3.85109497" cy="21.8705588" r="1"></circle>
                    <circle id="Oval" fill="#394DFF" cx="54.5492884" cy="21.7953511" r="1"></circle>
                    <circle id="Oval" fill="#394DFF" cx="55.2130412" cy="40.8887906" r="1"></circle>
                    <circle id="Oval" fill="#394DFF" cx="3.73515796" cy="41.0547423" r="1"></circle>
                    <path d="M10.8923767,37.310014 C7.93949713,37.310014 5.56561355,35.121922 5.56561355,31.8323415 C5.56561355,28.5427609 7.99739673,26.310014 10.8634269,26.310014 C13.9465806,26.310014 15.3072212,28.3492562 15.6401439,29.8675241 L13.4833838,30.5671182 C13.3241599,29.8377542 12.6727894,28.6023009 10.8634269,28.6023009 C9.48831142,28.6023009 7.93949713,29.6144795 7.93949713,31.8323415 C7.93949713,33.8120438 9.35803732,34.9581872 10.8923767,34.9581872 C12.6727894,34.9581872 13.3820595,33.7376189 13.5847081,32.9784849 L15.770418,33.618539 C15.4374953,35.077267 14.0768547,37.310014 10.8923767,37.310014 Z M24.0500607,37.0867393 L17.3337072,37.0867393 L17.3337072,26.5332887 L19.6207414,26.5332887 L19.6207414,34.8391074 L24.0500607,34.8391074 L24.0500607,37.0867393 Z M27.3069132,31.8025715 C27.3069132,34.0055485 28.8412526,34.9879571 30.2742677,34.9879571 C31.6928079,34.9879571 33.2271473,34.0055485 33.2271473,31.8025715 C33.2271473,29.5995945 31.6928079,28.6023009 30.2742677,28.6023009 C28.8412526,28.6023009 27.3069132,29.5995945 27.3069132,31.8025715 Z M24.9330296,31.8174565 C24.9330296,28.468336 27.3792877,26.310014 30.2742677,26.310014 C33.1547728,26.310014 35.6010309,28.468336 35.6010309,31.8174565 C35.6010309,35.1516919 33.1547728,37.310014 30.2742677,37.310014 C27.3792877,37.310014 24.9330296,35.1516919 24.9330296,31.8174565 Z M44.3004457,29.1232751 L42.2450099,29.7186743 C42.1726354,29.22747 41.7818131,28.3939111 40.5369717,28.3939111 C39.6829526,28.3939111 39.1329064,28.9446554 39.1329064,29.5251696 C39.1329064,30.0312589 39.4368793,30.4033834 40.1461494,30.5373482 L41.5212649,30.8052779 C43.4753764,31.1774023 44.4886194,32.4723956 44.4886194,33.9757785 C44.4886194,35.6280113 43.1424537,37.310014 40.6961956,37.310014 C37.8591152,37.310014 36.6432236,35.4196216 36.4984746,33.9311236 L38.5973351,33.4101493 C38.6841845,34.377673 39.3210801,35.2261168 40.7251454,35.2261168 C41.6225892,35.2261168 42.1726354,34.7795674 42.1726354,34.1246283 C42.1726354,33.5887691 41.7528633,33.2017596 41.072543,33.0677948 L39.6684777,32.7998651 C37.9314897,32.4575106 36.874822,31.2667122 36.874822,29.7037894 C36.874822,27.7092021 38.5828602,26.310014 40.5514466,26.310014 C43.1135039,26.310014 44.0833222,27.8878218 44.3004457,29.1232751 Z M52.5656135,37.0867393 L46.0519086,37.0867393 L46.0519086,26.5332887 L52.5511386,26.5332887 L52.5511386,28.7511507 L48.3389428,28.7511507 L48.3389428,30.7606229 L52.1603163,30.7606229 L52.1603163,32.8296351 L48.3389428,32.8296351 L48.3389428,34.8539923 L52.5656135,34.8539923 L52.5656135,37.0867393 Z" id="CLOSE" fill="#394DFF"></path>
                </g>
                <circle id="Oval" stroke="#394DFF" stroke-width="2" fill="#FFFFFF" cx="58" cy="9" r="2"></circle>
                <path d="M59.6798743,74.3581799 L59.6798743,62.6637528" id="Path-2" stroke="#394DFF" stroke-width="2" stroke-linecap="round"></path>
            </g>
        </g>
    </g>
</svg>